<?xml version="1.0" encoding="utf-8"?>
<!-- Generator: Adobe Illustrator 15.1.0, SVG Export Plug-In . SVG Version: 6.00 Build 0)  -->
<!DOCTYPE svg PUBLIC "-//W3C//DTD SVG 1.1//EN" "http://www.w3.org/Graphics/SVG/1.1/DTD/svg11.dtd">
<svg version="1.1" id="Layer_1" xmlns="http://www.w3.org/2000/svg" xmlns:xlink="http://www.w3.org/1999/xlink" x="0px" y="0px"
	 width="600px" height="800px" viewBox="0 0 600 800" enable-background="new 0 0 600 800" xml:space="preserve">
<g>
	<g>
		<g>
			<path fill="#FFFFFF" d="M48.069,361.656c3.123,1.25,6.745,1.25,9.867-0.25l97.545-44.339c6.245-2.998,8.868-10.491,5.87-16.736
				c-2.873-5.995-9.992-8.743-16.112-5.995l-68.319,31.1c32.598-97.545,123.399-162.741,227.937-162.741
				c109.536,0,205.331,73.19,232.934,177.978c1.748,6.619,8.617,10.617,15.236,8.868c6.619-1.749,10.617-8.618,8.868-15.237
				C531.42,218.649,425.757,137.716,304.857,137.716c-115.28,0-215.573,71.94-251.793,179.602l-28.726-71.815
				c-2.123-6.495-9.242-10.116-15.737-7.994c-6.495,2.123-10.117,9.242-7.994,15.737c0.125,0.5,0.375,0.999,0.624,1.499
				l39.842,99.917C42.324,357.785,44.821,360.408,48.069,361.656z"/>
			<path fill="#FFFFFF" d="M599.24,546.004c-0.125-0.249-0.25-0.5-0.25-0.749l-39.842-99.917c-1.25-3.123-3.747-5.746-6.994-6.994
				c-3.123-1.249-6.744-1.124-9.867,0.249l-97.545,44.339c-6.37,2.623-9.367,9.992-6.744,16.361c2.622,6.37,9.991,9.367,16.36,6.744
				c0.25-0.125,0.5-0.249,0.75-0.374l68.318-31.1C490.58,572.108,399.653,637.305,295.24,637.305
				c-109.535,0-205.331-73.19-232.933-177.979c-1.748-6.619-8.618-10.616-15.237-8.867c-6.619,1.748-10.617,8.618-8.868,15.237
				c30.35,115.779,136.138,196.588,257.038,196.588c115.28,0,215.447-71.941,251.793-179.603l28.726,71.815
				c2.373,6.495,9.492,9.867,15.986,7.493C598.24,559.618,601.612,552.499,599.24,546.004z"/>
		</g>
	</g>
</g>
</svg>
